<svg width="305" height="222" viewBox="0 0 305 222" fill="none" xmlns="http://www.w3.org/2000/svg">
<path d="M9.0438 129.903L9.39177 153.258H0.957333C1.13066 149.855 1.21734 131.759 1.21734 129.749V121.397C1.21734 120.082 0.957326 100.982 0.783997 99.1242H9.47844C9.30511 100.518 9.0438 112.272 9.0438 121.552V129.903ZM42.9549 129.594C42.9549 132.533 43.2149 152.098 43.3896 153.258H34.9551C35.3031 151.402 35.1285 126.888 35.1285 125.264V118.922C35.1285 116.602 34.9551 100.595 34.6938 99.1242C38.7817 99.1242 46.0855 99.2029 52.78 99.8989C64.2584 101.136 70.7796 105.467 70.7796 112.04C70.7796 118.613 65.8237 123.717 58.6932 127.738C60.8678 130.367 76.5181 147.612 78.9527 149.932L72.3449 154.649C71.3889 153.567 51.8241 130.754 49.2148 127.506C53.5627 125.418 62.2585 120.701 62.2585 113.123C62.2585 109.643 59.3892 104.461 42.9549 104.307V129.594ZM85.9085 152.871C87.5605 149.623 106.168 99.7442 106.604 97.8882H106.777C109.472 102.759 125.82 131.373 128.429 135.239C131.471 130.909 149.558 102.683 151.21 100.286H151.384C154.427 106.627 169.992 144.287 173.73 152.407L166.252 155.268C164.079 149.468 150.775 117.066 149.384 114.205C146.254 118.534 130.863 142.74 127.298 147.767H127.124C122.081 139.415 111.299 120.624 107.82 113.587L93.039 155.268L85.9085 152.871ZM223.38 129.671C222.424 127.97 211.729 109.951 210.859 108.715C209.555 110.416 199.555 129.362 198.772 130.599L223.38 129.671ZM179.034 150.706C183.817 143.282 208.859 99.3576 210.947 96.419H211.12C218.772 107.399 239.379 142.276 245.293 150.319L237.902 154.649L225.989 134.621L195.816 135.703C194.772 137.173 187.642 152.098 186.165 154.727L179.034 150.706ZM299.117 153.567C298.247 152.484 272.075 128.511 268.335 124.8C269.812 123.562 294.682 101.755 296.682 99.7442L301.724 104.848L278.074 124.258C280.769 127.197 301.55 145.292 304.855 148.154L299.117 153.567ZM259.466 154.031C259.64 151.788 259.9 138.719 259.9 129.903V121.706C259.9 114.979 259.466 100.131 259.466 98.3522H268.16C268.075 99.5895 267.727 114.205 267.727 120.933V129.285C267.727 135.239 267.987 152.562 268.16 154.031H259.466ZM16.3543 79.1501L11.7371 70.4783C11.2557 71.1823 7.56784 79.0221 7.27985 79.534L16.3543 79.1501ZM0 87.8538C1.76396 84.7819 10.9984 66.6064 11.769 65.3904H11.833C14.6543 69.9343 22.2541 84.3659 24.4354 87.6938L21.7102 89.4858L17.3169 81.198L6.18918 81.646C5.80385 82.254 3.17462 88.4298 2.63063 89.5178L0 87.8538ZM60.6438 88.9098C60.8038 88.0778 60.8358 78.734 60.8358 73.6462V68.8783C57.1479 68.8783 52.5947 69.0383 51.7614 69.1663V66.4464C53.044 66.7024 60.6438 66.8303 60.9958 66.8303H63.7864C64.3944 66.8303 71.3862 66.7024 72.7969 66.4464V69.1663C72.3475 69.0383 66.4157 68.8783 63.7224 68.8783V74.1582C63.7224 80.654 64.0424 88.2698 64.1064 88.9098H60.6438ZM116.984 89.2298L106.177 88.9098L106.273 79.63V75.3408L106.177 66.5104C106.947 66.5104 115.317 66.0304 116.342 65.9024L116.47 68.4303C115.445 68.4303 109.673 68.5903 109.16 68.5903V76.7181C109.737 76.7181 113.841 76.5581 115.413 76.3661L115.509 78.8941L109.16 78.766V86.5739L116.856 86.4779L116.984 89.2298ZM156.585 66.5104C156.456 67.2143 156.329 73.5182 156.329 77.5501V86.6059L163.96 86.4779V89.2298L153.186 88.9098C153.443 87.2138 153.443 80.366 153.443 79.5981V75.3421L153.315 66.5104H156.585ZM202.183 79.2461L202.311 88.9098H199.2L199.296 79.182V75.7261L199.136 66.5104H202.343C202.279 67.0864 202.183 71.9502 202.183 75.7901V79.2461ZM251.275 89.2298L240.469 88.9098L240.566 79.63V75.3408L240.469 66.5104C241.239 66.5104 249.608 66.0304 250.635 65.9024L250.762 68.4303C249.736 68.4303 243.965 68.5903 243.451 68.5903V76.7181C244.029 76.7181 248.133 76.5581 249.704 76.3661L249.802 78.8941L243.451 78.766V86.5739L251.147 86.4779L251.275 89.2298ZM290.621 79.118L290.781 88.9098H287.67C287.799 88.1418 287.736 77.9981 287.736 77.3261V74.7022L287.574 66.5104L294.245 66.8303C298.478 67.3423 300.882 69.1343 300.882 71.8542C300.882 74.5742 299.054 76.6861 296.426 78.3501L303.896 87.5338L301.459 89.4858C301.106 89.0378 293.891 79.5981 292.93 78.2541C294.534 77.3901 297.739 75.4381 297.739 72.3022C297.739 70.8623 296.682 68.7183 290.621 68.6543V79.118Z" fill="#551e13"/>
<path d="M181.743 53.8307V30.6699H159.119V8.04651H143.442V30.8499H120.818V54.0093L1.72797 54.0493L1.75861 46.5362L113.865 46.4216V30.7353H104.969V34.4805H108.949V41.5057H97.4762V23.7128H136.107V7.79053H127.679V11.3024H131.425V18.5609H120.656V1.00001H181.997V18.5609H170.758V11.7718H175.206V7.79053H166.075V23.4768H204.238V41.0364H193V34.4805H197.448V31.2033H188.55V45.9536L301.626 45.8376L301.664 53.6934L181.743 53.8307ZM181.743 167.504V190.665H159.119V213.289H143.442V190.485H120.818V167.325L1.72797 167.287L1.75861 174.798L113.865 174.913V190.599H104.969V186.854H108.949V179.829H97.4762V197.623H136.107V213.544H127.679V210.032H131.425V202.774H120.656V220.335H181.997V202.774H170.758V209.564H175.206V213.544H166.075V197.858H204.238V180.298H193V186.854H197.448V190.131H188.55V175.381L301.626 175.496L301.664 167.643L181.743 167.504Z" stroke="#551e13" stroke-width="1.3333"/>
</svg>
